HIERARCHY
ROOT Hips
{
	OFFSET 0.000000 0.000000 0.000000
	CHANNELS 6 Xposition Yposition Zposition Zrotation Yrotation Xrotation 
	JOINT LHipJoint
	{
		OFFSET 0.000000 0.000000 0.000000
		CHANNELS 3 Zrotation Yrotation Xrotation
		JOINT LeftUpLeg
		{
			OFFSET 1.363060 -1.794630 0.839290
			CHANNELS 3 Zrotation Yrotation Xrotation
			JOINT LeftLeg
			{
				OFFSET 2.448110 -6.726130 0.000000
				CHANNELS 3 Zrotation Yrotation Xrotation
				JOINT LeftFoot
				{
					OFFSET 2.562200 -7.039590 0.000000
					CHANNELS 3 Zrotation Yrotation Xrotation
					JOINT LeftToeBase
					{
						OFFSET 0.157640 -0.433110 2.322550
						CHANNELS 3 Zrotation Yrotation Xrotation
						End Site
						{
							OFFSET 0.000000 0.000000 0.000000
						}
					}
				}
			}
		}
	}
	JOINT RHipJoint
	{
		OFFSET 0.000000 0.000000 0.000000
		CHANNELS 3 Zrotation Yrotation Xrotation
		JOINT RightUpLeg
		{
			OFFSET -1.305520 -1.794630 0.839290
			CHANNELS 3 Zrotation Yrotation Xrotation
			JOINT RightLeg
			{
				OFFSET -2.542530 -6.985550 0.000000
				CHANNELS 3 Zrotation Yrotation Xrotation
				JOINT RightFoot
				{
					OFFSET -2.568260 -7.056230 0.000000
					CHANNELS 3 Zrotation Yrotation Xrotation
					JOINT RightToeBase
					{
						OFFSET -0.164730 -0.452590 2.363150
						CHANNELS 3 Zrotation Yrotation Xrotation
						End Site
						{
							OFFSET 0.000000 0.000000 0.000000
						}
					}
				}
			}
		}
	}
	JOINT LowerBack
	{
		OFFSET 0.000000 0.000000 0.000000
		CHANNELS 3 Zrotation Yrotation Xrotation
		JOINT Spine
		{
			OFFSET 0.028270 2.035590 -0.193380
			CHANNELS 3 Zrotation Yrotation Xrotation
			JOINT Spine1
			{
				OFFSET 0.056720 2.048850 -0.042750
				CHANNELS 3 Zrotation Yrotation Xrotation
				JOINT Neck
				{
					OFFSET 0.000000 0.000000 0.000000
					CHANNELS 3 Zrotation Yrotation Xrotation
					JOINT Neck1
					{
						OFFSET -0.054170 1.746240 0.172020
						CHANNELS 3 Zrotation Yrotation Xrotation
						JOINT Head
						{
							OFFSET 0.104070 1.761360 -0.123970
							CHANNELS 3 Zrotation Yrotation Xrotation
							End Site
							{
								OFFSET 0.000000 0.000000 0.000000
							}
						}
					}
				}
				JOINT LeftShoulder
				{
					OFFSET 0.000000 0.000000 0.000000
					CHANNELS 3 Zrotation Yrotation Xrotation
					JOINT LeftArm
					{
						OFFSET 3.362410 1.200890 -0.311210
						CHANNELS 3 Zrotation Yrotation Xrotation
						JOINT LeftForeArm
						{
							OFFSET 4.983000 -0.000000 -0.000000
							CHANNELS 3 Zrotation Yrotation Xrotation
							JOINT LeftHand
							{
								OFFSET 3.483560 -0.000000 -0.000000
								CHANNELS 3 Zrotation Yrotation Xrotation
								JOINT LeftFingerBase
								{
									OFFSET 0.000000 0.000000 0.000000
									CHANNELS 3 Zrotation Yrotation Xrotation
									JOINT LeftHandIndex1
									{
										OFFSET 0.715260 -0.000000 -0.000000
										CHANNELS 3 Zrotation Yrotation Xrotation
										End Site
										{
											OFFSET 0.000000 0.000000 0.000000
										}
									}
								}
								JOINT LThumb
								{
									OFFSET 0.000000 0.000000 0.000000
									CHANNELS 3 Zrotation Yrotation Xrotation
									End Site
									{
										OFFSET 0.000000 0.000000 0.000000
									}
								}
							}
						}
					}
				}
				JOINT RightShoulder
				{
					OFFSET 0.000000 0.000000 0.000000
					CHANNELS 3 Zrotation Yrotation Xrotation
					JOINT RightArm
					{
						OFFSET -3.136600 1.374050 -0.404650
						CHANNELS 3 Zrotation Yrotation Xrotation
						JOINT RightForeArm
						{
							OFFSET -5.241900 -0.000000 -0.000000
							CHANNELS 3 Zrotation Yrotation Xrotation
							JOINT RightHand
							{
								OFFSET -3.444170 -0.000000 -0.000000
								CHANNELS 3 Zrotation Yrotation Xrotation
								JOINT RightFingerBase
								{
									OFFSET 0.000000 0.000000 0.000000
									CHANNELS 3 Zrotation Yrotation Xrotation
									JOINT RightHandIndex1
									{
										OFFSET -0.622530 -0.000000 -0.000000
										CHANNELS 3 Zrotation Yrotation Xrotation
										End Site
										{
											OFFSET 0.000000 0.000000 0.000000
										}
									}
								}
								JOINT RThumb
								{
									OFFSET 0.000000 0.000000 0.000000
									CHANNELS 3 Zrotation Yrotation Xrotation
									End Site
									{
										OFFSET 0.000000 0.000000 0.000000
									}
								}
							}
						}
					}
				}
			}
		}
	}
}
MOTION
Frames: 8
Frame Time: 0.008333
-4.651475 17.025966 -0.430312 136.010994 -82.887205 -117.948031 -8.685215 2.630014 2.915889 -15.710537 8.761700 -23.119640 -3.776580 -1.854933 4.776267 0.878672 4.895674 -5.799880 0.258100 0.000000 -41.503500 11.034172 -0.948488 5.613932 -0.330451 3.413388 -32.232261 0.610307 -0.503805 25.271660 -3.574419 -12.767929 -13.850826 0.465800 0.000000 -48.923700 -3.284320 -0.082002 -10.003153 -1.335272 -0.060623 -4.946455 -6.622954 -0.117606 -0.694809 9.519843 -3.642419 -5.786362 -4.545296 -0.368120 0.474159 0.000000 0.000000 0.000000 -4.912459 10.921142 -1.241456 -60.538735 -13.103428 15.629831 -178.992903 -74.006351 179.893383 21.497029 -22.081282 -4.558576 -0.600909 1.035861 -0.000000 0.000000 0.000000 0.000000 0.000000 0.000000 0.000000 17.189863 1.610800 1.128204 72.765189 2.822438 13.258194 2.130512 41.110198 0.004728 1.003579 1.059289 0.011119 0.028736 -0.134709 0.000000 0.000000 0.000000 0.000000 0.000000 0.000000 0.000000 
-4.645393 17.016150 -0.478637 141.199254 -81.905629 -123.061894 -8.674853 2.606559 2.684864 -16.041700 9.730401 -23.228240 -3.823987 -1.867584 4.868845 0.918764 5.178067 -5.892619 0.253400 0.000000 -41.632800 11.023759 -0.998576 5.891938 -0.734173 4.487970 -32.843979 0.549079 -0.586553 25.911022 -3.537048 -12.520477 -14.039730 0.501000 -0.000001 -48.872800 -3.475051 -0.182651 -10.059865 -1.367616 -0.149921 -4.957706 -6.653220 -0.217510 -0.659407 9.646309 -3.668054 -5.901467 -4.522166 -0.366133 0.443590 0.000000 0.000000 0.000000 -4.992033 11.103057 -1.213153 -59.961217 -12.163621 14.956298 -179.065768 -75.042782 179.898656 21.837124 -22.117482 -4.627369 -0.591102 0.994250 -0.000000 0.000000 0.000000 0.000000 0.000000 0.000000 0.000000 17.338831 1.570789 1.121577 72.813574 2.343838 12.957993 2.174305 40.355823 0.004395 0.910281 0.976498 0.009400 0.031732 -0.129300 0.000000 0.000000 0.000000 0.000000 0.000000 0.000000 0.000000 
-4.638414 17.006412 -0.528107 145.410489 -80.827984 -127.208406 -8.679435 2.585538 2.452434 -16.353454 10.695670 -23.341674 -3.864034 -1.872475 4.997305 0.967729 5.510242 -6.005457 0.246500 -0.000000 -41.731800 10.994719 -1.047903 6.165479 -1.138314 5.588481 -33.437478 0.486365 -0.663760 26.533985 -3.497434 -12.275037 -14.212680 0.531901 -0.000000 -48.818100 -3.676624 -0.275301 -10.116212 -1.405526 -0.229418 -4.967693 -6.685684 -0.307172 -0.618809 9.781173 -3.701909 -6.024375 -4.499950 -0.364117 0.410794 0.000000 0.000000 0.000000 -5.064341 11.310238 -1.179494 -59.401293 -11.226890 14.287769 -179.140228 -76.176093 179.904432 22.177923 -22.139843 -4.692886 -0.580515 0.950939 -0.000000 0.000000 0.000000 0.000000 0.000000 0.000000 0.000000 17.507161 1.531264 1.114487 72.819184 1.907951 12.681261 2.216174 39.666459 0.004099 0.840330 0.856201 0.007783 0.034472 -0.124098 0.000000 0.000000 0.000000 0.000000 0.000000 0.000000 0.000000 
-4.630464 16.996770 -0.578666 148.883333 -79.674408 -130.627187 -8.693423 2.566877 2.219221 -16.638457 11.648351 -23.461106 -3.895768 -1.868925 5.174048 1.026224 5.892632 -6.146174 0.235900 0.000001 -41.784400 10.951967 -1.095193 6.433028 -1.537418 6.710974 -34.007997 0.423472 -0.735616 27.137073 -3.455049 -12.029019 -14.370599 0.558900 -0.000000 -48.758900 -3.881947 -0.359845 -10.171383 -1.447001 -0.299865 -4.976124 -6.719080 -0.387320 -0.572595 9.923141 -3.746568 -6.155028 -4.477928 -0.362016 0.375840 0.000000 0.000000 0.000000 -5.123772 11.539925 -1.140527 -58.869783 -10.290793 13.624105 -179.217196 -77.412060 179.910685 22.515355 -22.145642 -4.753624 -0.569007 0.906024 -0.000000 0.000000 0.000000 0.000000 0.000000 0.000000 0.000000 17.689651 1.488462 1.106377 72.786734 1.517721 12.441086 2.256320 39.040865 0.003843 0.796035 0.709451 0.006365 0.036970 -0.119148 0.000000 0.000000 0.000000 0.000000 0.000000 0.000000 0.000000 
-4.621461 16.987224 -0.630258 151.794846 -78.459675 -133.497620 -8.713172 2.550149 1.985911 -16.890914 12.581324 -23.586338 -3.918551 -1.856460 5.409127 1.094390 6.322958 -6.320489 0.219900 -0.000000 -41.779900 10.898895 -1.139913 6.693117 -1.926614 7.849932 -34.550557 0.361809 -0.802515 27.717622 -3.409079 -11.778831 -14.513641 0.582500 -0.000001 -48.701799 -4.085132 -0.436023 -10.224725 -1.490002 -0.361628 -4.984809 -6.750484 -0.458656 -0.528326 10.066633 -3.797065 -6.285074 -4.456035 -0.359929 0.341195 0.000000 0.000000 0.000000 -5.160339 11.753188 -1.096668 -58.377865 -9.302244 12.943578 -179.297840 -78.732823 179.917296 22.841213 -22.133598 -4.807386 -0.556158 0.859726 0.000000 0.000000 0.000000 0.000000 0.000000 0.000000 0.000000 17.875062 1.445130 1.100123 72.727922 1.165707 12.232158 2.295423 38.473357 0.003641 0.784560 0.548380 0.005150 0.039187 -0.114520 0.000000 0.000000 0.000000 0.000000 0.000000 0.000000 0.000000 
-4.611272 16.977749 -0.682820 154.270494 -77.194296 -135.947873 -8.735640 2.534822 1.753928 -17.107588 13.485094 -23.715310 -3.931838 -1.835067 5.707530 1.172505 6.801284 -6.530430 0.197100 -0.000000 -41.713000 10.838447 -1.181415 6.944327 -2.303135 8.997967 -35.063514 0.302728 -0.865203 28.275836 -3.358376 -11.518885 -14.642894 0.602700 -0.000000 -48.654200 -4.283034 -0.504190 -10.276201 -1.533510 -0.415468 -4.993485 -6.779232 -0.521911 -0.485216 10.209183 -3.855748 -6.414063 -4.433717 -0.357820 0.307032 0.000000 0.000000 0.000000 -5.172510 11.947929 -1.047831 -57.931011 -8.262329 12.248515 -179.382072 -80.141459 179.924241 23.154037 -22.104388 -4.853969 -0.542018 0.812274 0.000000 0.000000 0.000000 0.000000 0.000000 0.000000 0.000000 18.058059 1.397794 1.094782 72.648505 0.855041 12.064341 2.333558 37.960368 0.003496 0.805224 0.385151 0.004135 0.041145 -0.110249 0.000000 0.000000 0.000000 0.000000 0.000000 0.000000 0.000000 
-4.600068 16.968247 -0.736247 156.405327 -75.884753 -138.071466 -8.758667 2.520717 1.524684 -17.288083 14.352414 -23.845718 -3.935581 -1.805118 6.070468 1.260628 7.326910 -6.776000 0.166300 -0.000000 -41.586000 10.773040 -1.219233 7.185529 -2.665690 10.147017 -35.547731 0.247524 -0.924430 28.813147 -3.301388 -11.241707 -14.758762 0.619700 0.000000 -48.629300 -4.473849 -0.565826 -10.325809 -1.576989 -0.463165 -5.000083 -6.806109 -0.578549 -0.435505 10.351216 -3.926876 -6.547919 -4.410201 -0.355549 0.271634 0.000000 0.000000 0.000000 -5.165162 12.157353 -0.993130 -57.529506 -7.217868 11.560722 -179.469474 -81.658486 179.931592 23.460078 -22.062326 -4.895572 -0.527042 0.763917 -0.000000 0.000000 0.000000 0.000000 0.000000 0.000000 0.000000 18.238722 1.341790 1.086212 72.548691 0.596177 11.957941 2.370134 37.502149 0.003396 0.853467 0.226490 0.003222 0.042882 -0.106311 0.000000 0.000000 0.000000 0.000000 0.000000 0.000000 0.000000 
-4.587885 16.958597 -0.790387 158.268744 -74.536467 -139.939837 -8.781068 2.507712 1.299026 -17.431484 15.180679 -23.973044 -3.929736 -1.766937 6.496854 1.358450 7.898358 -7.054037 0.126799 -0.000000 -41.409001 10.704487 -1.253234 7.415393 -3.011282 11.289112 -36.001444 0.197565 -0.981013 29.331660 -3.236572 -10.939950 -14.862065 0.633300 -0.000000 -48.636700 -4.654338 -0.620356 -10.372720 -1.619553 -0.504517 -5.004206 -6.830632 -0.628288 -0.378391 10.489823 -4.007560 -6.685479 -4.385331 -0.353107 0.235316 0.000000 0.000000 0.000000 -5.139135 12.386551 -0.932249 -57.177068 -6.181884 10.888969 -179.560458 -83.291098 179.939353 23.759806 -22.012848 -4.933486 -0.511355 0.714952 -0.000000 0.000000 0.000000 0.000000 0.000000 0.000000 0.000000 18.412655 1.279755 1.072997 72.432080 0.384854 11.912729 2.404673 37.100728 0.003343 0.925095 0.083173 0.002210 0.044405 -0.102728 0.000000 0.000000 0.000000 0.000000 0.000000 0.000000 0.000000 
